<?xml version="1.0" encoding="UTF-8"?>
<svg version="1.1" xmlns="http://www.w3.org/2000/svg" width="512" height="512">
<path d="M0 0 C0.97051306 -0.00453111 1.94102612 -0.00906223 2.94094867 -0.01373065 C6.1958441 -0.02639978 9.45057274 -0.02475264 12.70549011 -0.02310181 C15.03804744 -0.02908549 17.37060279 -0.03589066 19.70315552 -0.04345703 C26.04204797 -0.06114069 32.38088645 -0.06581342 38.71980119 -0.0670886 C44.01056766 -0.06898698 49.30132153 -0.07634383 54.59208316 -0.08343279 C66.36144436 -0.09907673 78.13078217 -0.10476991 89.90015284 -0.10342209 C90.60612898 -0.10334218 91.31210513 -0.10326227 92.03947449 -0.10317993 C92.74631481 -0.10309817 93.45315514 -0.10301641 94.18141486 -0.10293217 C105.63443388 -0.10211942 117.08732134 -0.12125475 128.54030231 -0.14945666 C140.30619773 -0.17819998 152.07202901 -0.19199615 163.83796042 -0.19026911 C170.44120559 -0.18975905 177.04430188 -0.19546683 183.64751625 -0.21662521 C189.85851182 -0.2359831 196.06921613 -0.23614854 202.28022194 -0.22159195 C204.55863876 -0.21949972 206.8370737 -0.22422929 209.11545944 -0.23631287 C212.22843851 -0.25175222 215.34041168 -0.24246511 218.45336914 -0.22705078 C219.80236769 -0.24248147 219.80236769 -0.24248147 221.17861873 -0.25822389 C228.13947711 -0.18217726 233.38782006 1.61279486 238.65934753 6.23226929 C239.19817566 6.88324585 239.73700378 7.53422241 240.29216003 8.20492554 C240.84645691 8.85332397 241.40075378 9.50172241 241.97184753 10.16976929 C244.76734141 14.2270131 245.66734787 17.79747221 245.65766907 22.69010925 C245.66179306 24.30331558 245.66179306 24.30331558 245.66600037 25.94911194 C245.65880981 27.11867935 245.65161926 28.28824677 245.64421082 29.49325562 C245.64450287 30.73268921 245.64479492 31.9721228 245.64509583 33.24911499 C245.64394276 36.63930268 245.63392513 40.02924559 245.61994791 43.41938996 C245.60742966 46.96546343 245.60626919 50.51154029 245.60389709 54.05763245 C245.59768554 60.76882308 245.58127913 67.47994841 245.56119812 74.19111031 C245.53882901 81.83315147 245.52784314 89.47519577 245.51780725 97.11726153 C245.4969126 112.83402066 245.46174295 128.55071467 245.41716003 144.26742554 C251.51961919 144.32248877 257.61906105 144.3247619 263.72160339 144.27963257 C265.79418804 144.27155735 267.86687951 144.27751969 269.93937683 144.29818726 C283.45343038 144.99471639 283.45343038 144.99471639 295.08512878 139.32992554 C296.2005771 137.9796863 297.31190914 136.6260246 298.41716003 135.26742554 C304.30100042 131.73172654 310.71311313 131.63827652 317.41716003 132.26742554 C319.43211911 132.88741294 321.43590154 133.5469679 323.41716003 134.26742554 C327.02823245 134.58418628 329.62520131 134.55026794 333.04216003 133.32992554 C336.01741401 130.74615235 337.36797269 127.94802863 339.17106628 124.48226929 C342.44439738 118.66415414 348.12967766 114.36325299 354.41716003 112.26742554 C357.97469969 111.98545153 361.53718076 111.98983238 365.10466003 111.95492554 C366.55775574 111.91141968 366.55775574 111.91141968 368.04020691 111.86703491 C376.01052758 111.796978 381.25769061 113.45900827 387.22966003 118.76742554 C389.9674736 121.89635532 392.0811562 124.51905337 393.79216003 128.32992554 C395.67534515 131.73414479 396.83630062 132.8025285 400.41716003 134.26742554 C404.07382 134.59984917 406.70898518 134.52494366 410.16716003 133.26742554 C417.35192404 131.05672892 424.50517246 131.46640854 431.22184753 134.87289429 C438.7754832 139.67120022 444.86506482 145.92017843 448.72966003 154.01742554 C450.23011574 161.11048889 449.88909817 167.46959566 447.41716003 174.26742554 C447.1003993 177.87849796 447.13431763 180.47546681 448.35466003 183.89242554 C450.93843322 186.86767951 453.73655694 188.21823819 457.20231628 190.02133179 C463.02043143 193.29466288 467.32133258 198.97994317 469.41716003 205.26742554 C469.69913404 208.82496519 469.69475319 212.38744626 469.72966003 215.95492554 C469.75866394 216.92365601 469.78766785 217.89238647 469.81755066 218.89047241 C469.88760757 226.86079308 468.2255773 232.10795612 462.91716003 238.07992554 C459.78823025 240.8177391 457.16553221 242.93142171 453.35466003 244.64242554 C449.95044078 246.52561066 448.88205707 247.68656612 447.41716003 251.26742554 C447.0847364 254.9240855 447.15964191 257.55925069 448.41716003 261.01742554 C450.62785665 268.20218954 450.21817703 275.35543796 446.81169128 282.07211304 C442.01338535 289.6257487 435.76440714 295.71533033 427.66716003 299.57992554 C421.29279253 300.92834943 415.34641332 301.11340631 409.23112488 298.74472046 C408.5154837 298.469561 407.79984253 298.19440155 407.06251526 297.91090393 C406.51954803 297.69855606 405.97658081 297.48620819 405.41716003 297.26742554 C405.42084721 297.87573369 405.42453438 298.48404184 405.42833328 299.11078358 C405.51689633 313.95235217 405.58297235 328.79389505 405.62440872 343.63566303 C405.64498272 350.81322569 405.6730036 357.99061132 405.71891785 365.1680603 C405.75894481 371.42820731 405.78463032 377.68822604 405.79351401 383.94849747 C405.79870221 387.25947528 405.81292576 390.57000337 405.84008026 393.88088417 C405.8692692 397.58848117 405.8731094 401.29532717 405.8712616 405.00302124 C405.8856427 406.08556183 405.9000238 407.16810242 405.9148407 408.28344727 C405.85343025 419.72890422 402.34944607 428.95815957 394.41716003 437.26742554 C385.51957131 445.76134294 375.67413543 448.90687577 363.52970886 448.7215271 C361.99111206 448.72240326 361.99111206 448.72240326 360.4214325 448.72329712 C357.07199305 448.72053742 353.72347291 448.68954567 350.37419128 448.65805054 C348.03579189 448.65058063 345.69738619 448.64489125 343.35897827 448.64089966 C337.2350861 448.62570248 331.11157962 448.58647171 324.98783875 448.54208374 C318.72670202 448.5010031 312.46550236 448.48286139 306.20426941 448.46273804 C293.94170379 448.41997159 281.67952448 448.34967021 269.41716003 448.26742554 C269.41716003 458.82742554 269.41716003 469.38742554 269.41716003 480.26742554 C285.25716003 480.26742554 301.09716003 480.26742554 317.41716003 480.26742554 C317.41716003 485.54742554 317.41716003 490.82742554 317.41716003 496.26742554 C248.77716003 496.26742554 180.13716003 496.26742554 109.41716003 496.26742554 C109.41716003 490.98742554 109.41716003 485.70742554 109.41716003 480.26742554 C125.25716003 480.26742554 141.09716003 480.26742554 157.41716003 480.26742554 C157.41716003 469.70742554 157.41716003 459.14742554 157.41716003 448.26742554 C154.2940033 448.2883728 151.17084656 448.30932007 147.95304871 448.3309021 C137.60748606 448.39732876 127.26191374 448.44142349 116.91619396 448.47467422 C110.64662536 448.49550455 104.3772762 448.52373926 98.10783386 448.56918335 C92.05184092 448.61280306 85.9960584 448.63659688 79.93992043 448.64693451 C77.63516747 448.65429693 75.33042538 448.66867376 73.02576256 448.69034576 C69.78513014 448.71959354 66.54535542 448.72337255 63.30461121 448.7215271 C62.3623317 448.7359082 61.42005219 448.75028931 60.44921875 448.7651062 C49.45838971 448.69785236 40.35284288 444.8430774 32.41716003 437.26742554 C20.97114732 425.2774439 20.84251771 412.49258089 20.96305847 396.83309937 C20.96418819 394.77238996 20.96355066 392.71167894 20.96128845 390.65097046 C20.96014524 385.08347484 20.98359098 379.51632702 21.01158428 373.94891191 C21.0366635 368.12066828 21.03894507 362.29241585 21.04368591 356.46412659 C21.05609654 345.43942577 21.08889229 334.41488445 21.12908387 323.39025372 C21.17386113 310.83403273 21.1958036 298.27780394 21.21586561 285.72152293 C21.25762658 259.9034022 21.32794142 234.08542282 21.41716003 208.26742554 C20.51997253 208.2883728 19.62278503 208.30932007 18.69841003 208.3309021 C15.33616145 208.3995017 11.97466769 208.44942848 8.61198425 208.4871521 C7.16297086 208.50713849 5.71403678 208.53433751 4.26530457 208.56918335 C-5.10004781 208.78863337 -12.38508213 208.82225514 -19.82502747 202.30258179 C-20.63326965 201.32611694 -20.63326965 201.32611694 -21.45783997 200.32992554 C-22.01213684 199.6815271 -22.56643372 199.03312866 -23.13752747 198.36508179 C-26.34822932 193.70522532 -26.83544946 189.72003412 -26.8502655 184.11427307 C-26.85479662 183.40510736 -26.85932773 182.69594165 -26.86399615 181.96528608 C-26.87663148 179.5948225 -26.87502036 177.22458893 -26.87336731 174.85409546 C-26.87935314 173.15207118 -26.88615881 171.45004961 -26.89372253 169.74803162 C-26.91138494 165.12808864 -26.91607804 160.50821977 -26.91735411 155.8882463 C-26.91877621 153.00044914 -26.92304694 150.11267079 -26.92834854 147.22487831 C-26.94685011 137.14619375 -26.95501906 127.06756207 -26.95344543 116.98886108 C-26.95224423 107.60086855 -26.97334221 98.21310599 -27.00493276 88.82517165 C-27.03110425 80.75960879 -27.04181235 72.694121 -27.04053462 64.62851602 C-27.04002521 59.81377185 -27.04569655 54.99923205 -27.06689072 50.18453026 C-27.08628762 45.65444901 -27.08638769 41.12476676 -27.07185745 36.59467125 C-27.06977 34.93547481 -27.07446646 33.27625331 -27.08657837 31.61709976 C-27.20313229 14.53988636 -27.20313229 14.53988636 -20.61799622 7.02523804 C-19.96701965 6.48640991 -19.31604309 5.94758179 -18.64533997 5.39242554 C-17.99694153 4.83812866 -17.34854309 4.28383179 -16.68049622 3.71273804 C-11.26452272 -0.0189383 -6.36510118 -0.02175881 0 0 Z M-8.58283997 19.26742554 C-14.15919948 33.20832432 -10.58283997 49.25261803 -10.58283997 64.26742554 C68.61716003 64.26742554 147.81716003 64.26742554 229.41716003 64.26742554 C231.35308139 40.45631453 231.35308139 40.45631453 226.41716003 18.26742554 C222.15874982 15.53943562 217.24846378 15.98503416 212.35235596 16.00672913 C211.4376015 16.00290358 210.52284704 15.99907803 209.58037275 15.99513656 C206.51427274 15.98481531 203.4483603 15.98879707 200.38224792 15.99276733 C198.18437527 15.9884204 195.98650413 15.98323731 193.78863525 15.97727966 C187.81762747 15.96387689 181.84668294 15.9633124 175.87566304 15.96584296 C170.89288937 15.96691175 165.91012854 15.9620317 160.92735761 15.95723754 C148.5014867 15.94550325 136.07564398 15.94636999 123.64977204 15.95279435 C112.8614746 15.95796381 102.07326745 15.94670708 91.28498787 15.92769613 C80.20389272 15.90831907 69.12283428 15.90035293 58.04172128 15.90381938 C51.8219824 15.90563407 45.60232621 15.90297751 39.38260078 15.88910484 C33.53442676 15.87654921 27.68643373 15.87844924 21.83826256 15.89151573 C19.69123906 15.89388595 17.54420291 15.89113097 15.39719391 15.88289261 C12.46756733 15.87246131 9.53855216 15.88049692 6.60894775 15.89320374 C5.75826298 15.88582945 4.90757821 15.87845517 4.03111511 15.87085742 C-0.86249094 15.91554636 -4.44458519 16.36455974 -8.58283997 19.26742554 Z M-10.58283997 80.26742554 C-17.2848045 137.20364672 -17.2848045 137.20364672 -7.58283997 190.26742554 C-3.32442976 192.99541546 1.58585629 192.54981692 6.48196411 192.52812195 C7.39671857 192.5319475 8.31147303 192.53577304 9.25394732 192.53971452 C12.32004733 192.55003576 15.38595977 192.54605401 18.45207214 192.54208374 C20.6499448 192.54643068 22.84781594 192.55161377 25.04568481 192.55757141 C31.0166926 192.57097418 36.98763713 192.57153868 42.95865703 192.56900811 C47.9414307 192.56793933 52.92419153 192.57281937 57.90696245 192.57761353 C70.33283337 192.58934782 82.75867609 192.58848109 95.18454803 192.58205672 C105.97284546 192.57688727 116.76105262 192.58814399 127.54933219 192.60715494 C138.63042735 192.626532 149.71148579 192.63449815 160.79259878 192.63103169 C167.01233767 192.62921701 173.23199385 192.63187357 179.45171928 192.64574623 C185.29989331 192.65830187 191.14788633 192.65640183 196.99605751 192.64333534 C199.14308101 192.64096513 201.29011716 192.64372011 203.43712616 192.65195847 C206.36675274 192.66238976 209.29576791 192.65435415 212.22537231 192.64164734 C213.50139947 192.65270877 213.50139947 192.65270877 214.80320495 192.66399366 C219.69681101 192.61930472 223.27890525 192.17029133 227.41716003 189.26742554 C240.91329259 155.52709416 229.41716003 116.60687456 229.41716003 80.26742554 C150.21716003 80.26742554 71.01716003 80.26742554 -10.58283997 80.26742554 Z M245.41716003 160.26742554 C245.41716003 165.54742554 245.41716003 170.82742554 245.41716003 176.26742554 C258.28716003 176.26742554 271.15716003 176.26742554 284.41716003 176.26742554 C283.42716003 170.98742554 282.43716003 165.70742554 281.41716003 160.26742554 C269.53716003 160.26742554 257.65716003 160.26742554 245.41716003 160.26742554 Z M333.60466003 192.51742554 C326.51037939 202.33393015 325.26359475 212.4820318 326.41716003 224.26742554 C328.67473913 235.04769968 335.16172151 243.37851618 343.99137878 249.75961304 C353.96731902 255.96043902 365.18918433 256.99050843 376.56950378 254.60726929 C387.75425109 250.9835994 396.21971055 243.07865549 401.73747253 232.81039429 C405.78859854 223.36248853 406.01734984 212.0918209 402.85466003 202.32992554 C398.27807609 191.65656368 390.02802189 183.40650948 379.35466003 178.82992554 C361.93776614 173.18714505 345.21106214 178.74252367 333.60466003 192.51742554 Z M240.74137878 196.65023804 C239.96241497 198.18716685 239.18718509 199.72599885 238.41716003 201.26742554 C233.30582342 206.12942866 228.76327492 207.51282673 221.77963257 207.54589844 C221.12764389 207.55168411 220.47565521 207.55746979 219.8039093 207.56343079 C217.62049942 207.58041158 215.43730057 207.58329478 213.25382996 207.58627319 C211.6612589 207.59568613 210.06869276 207.60596558 208.47613239 207.61704063 C204.2146051 207.64428678 199.95311229 207.65968621 195.69152069 207.67262268 C191.69136996 207.68656304 187.69131289 207.71119935 183.69120789 207.73495483 C171.99574507 207.79818505 160.30019459 207.84425866 148.60466003 207.89242554 C109.40684753 208.07805054 109.40684753 208.07805054 69.41716003 208.26742554 C69.41716003 261.06742554 69.41716003 313.86742554 69.41716003 368.26742554 C164.45716003 368.26742554 259.49716003 368.26742554 357.41716003 368.26742554 C357.41716003 352.42742554 357.41716003 336.58742554 357.41716003 320.26742554 C354.11716003 318.94742554 350.81716003 317.62742554 347.41716003 316.26742554 C344.47966003 313.76742554 344.47966003 313.76742554 342.41716003 311.26742554 C341.61278503 310.30836304 341.61278503 310.30836304 340.79216003 309.32992554 C339.41716003 307.26742554 339.41716003 307.26742554 337.91716003 304.20492554 C335.88975637 300.23459337 334.65069919 298.67860526 330.41716003 297.26742554 C326.83233202 297.06451074 324.05957361 297.0338206 320.66716003 298.26742554 C313.41726119 300.49816364 306.31113943 300.03254656 299.54606628 296.59555054 C292.31307638 292.08322656 286.77452631 286.20666915 283.10466003 278.51742554 C281.60420432 271.42436218 281.9452219 265.06525541 284.41716003 258.26742554 C284.85802482 253.24156696 284.54227846 250.28543495 281.41716003 246.26742554 C279.20716089 244.286047 277.17901265 243.15595229 274.47966003 241.89242554 C268.28224212 238.6039997 264.72870636 233.77124588 262.41716003 227.26742554 C261.86757377 223.58296856 261.85635386 219.98673623 261.91716003 216.26742554 C261.89395691 214.84816772 261.89395691 214.84816772 261.87028503 213.40023804 C261.91914101 204.58173369 264.63099231 198.88018865 270.41716003 192.26742554 C266.21001565 192.0052074 262.00497112 191.8459495 257.79216003 191.70492554 C256.60235535 191.62951538 255.41255066 191.55410522 254.18669128 191.47640991 C246.14891414 191.24685538 246.14891414 191.24685538 240.74137878 196.65023804 Z M37.41716003 208.26742554 C37.37084487 234.18874321 37.33516192 260.1100509 37.31353569 286.03140163 C37.30322698 298.067366 37.28917434 310.10330416 37.26628113 322.13925171 C37.24633491 332.63084734 37.23344065 343.12242399 37.22898304 353.61403805 C37.22637777 359.16827275 37.22026255 364.72245317 37.20569992 370.27667046 C37.1920966 375.50752304 37.18794298 380.73829912 37.19094467 385.96916771 C37.19039574 387.88594733 37.18643473 389.80272958 37.17874908 391.71949387 C37.16874478 394.34387597 37.17121106 396.96797222 37.176651 399.59236145 C37.17082532 400.34433554 37.16499964 401.09630962 37.15899742 401.8710708 C37.20819255 410.6992769 38.57536259 418.46021236 45.05778503 424.89633179 C51.88039636 431.05151375 58.54052836 432.3955682 67.64344788 432.38768005 C69.48589836 432.38974205 69.48589836 432.38974205 71.36557007 432.3918457 C72.71333338 432.38830731 74.06109644 432.38467251 75.40885925 432.38095093 C76.83829751 432.38066864 78.2677359 432.38082761 79.69717407 432.38139343 C83.56654286 432.38167977 87.4358805 432.37580946 91.30524206 432.36881948 C95.35313604 432.36255872 99.40103076 432.36197998 103.44892883 432.36079407 C111.10920961 432.35768878 118.76947608 432.3494862 126.42975056 432.33944458 C135.15281729 432.32825854 143.87588471 432.32276671 152.59895682 432.31774914 C170.538366 432.30730291 188.47776187 432.289719 206.41716003 432.26742554 C204.48408506 430.97870889 202.52669133 429.72540111 200.54216003 428.51742554 C195.63506375 424.98431621 192.30344823 421.1099111 190.41716003 415.26742554 C189.61121747 407.42354263 189.32044114 399.67558087 194.41716003 393.26742554 C197.93569391 389.54878547 201.45109687 386.77229316 206.41716003 385.26742554 C206.41716003 384.93742554 206.41716003 384.60742554 206.41716003 384.26742554 C205.68570707 384.26595898 204.95425411 384.26449242 204.20063591 384.26298141 C186.39809975 384.22592061 168.59575993 384.16691558 150.79337883 384.0835228 C142.18424545 384.04372301 133.5752036 384.01133532 124.96598816 383.99642944 C117.4616884 383.98341776 109.95758997 383.95646559 102.45340359 383.91281247 C98.48039542 383.89018661 94.50763566 383.87451552 90.53455734 383.87554169 C86.79321191 383.87628765 83.05241583 383.85836322 79.31121254 383.82625771 C77.28706294 383.81370714 75.26282117 383.82082772 73.23864746 383.8285675 C61.93821152 383.69879081 61.93821152 383.69879081 57.41716003 379.26742554 C54.45734197 375.22882239 54.03720238 372.3306299 54.01843262 367.364151 C54.01178579 366.68200918 54.00513896 365.99986737 53.99829072 365.29705459 C53.97968407 363.01838917 53.98226432 360.74024991 53.98478699 358.46151733 C53.97576837 356.82532511 53.9654409 355.18913966 53.9539032 353.55296326 C53.92631869 349.1153665 53.91704671 344.67789789 53.91104913 340.24022651 C53.90166925 335.60103255 53.87546616 330.96193445 53.8510437 326.32279968 C53.80736441 317.53982531 53.77882622 308.75686952 53.75572032 299.97381955 C53.72867632 289.97383875 53.68476431 279.97395431 53.6394316 269.9740423 C53.54656483 249.40522022 53.4754917 228.83637204 53.41716003 208.26742554 C48.13716003 208.26742554 42.85716003 208.26742554 37.41716003 208.26742554 Z M387.41716003 312.26742554 C387.41716003 312.92742554 387.41716003 313.58742554 387.41716003 314.26742554 C384.39745215 315.83372262 381.33065589 317.14367717 378.16716003 318.39242554 C376.82911316 318.92223022 376.82911316 318.92223022 375.46403503 319.46273804 C374.78856628 319.72828491 374.11309753 319.99383179 373.41716003 320.26742554 C373.4135144 320.93061798 373.40986877 321.59381042 373.40611267 322.27709961 C373.36425857 329.1881294 373.29489179 336.09849689 373.2096405 343.00912476 C373.18143844 345.58718233 373.16022017 348.16532625 373.14616394 350.74349976 C373.12472495 354.45244529 373.07806608 358.16035347 373.02653503 361.86898804 C373.0253064 363.01920441 373.02407776 364.16942078 373.02281189 365.35449219 C372.91211487 371.42117513 372.78019634 375.63930996 368.41716003 380.26742554 C364.62986855 382.98570362 362.02260866 383.64580373 357.38705444 383.66615295 C356.17695709 383.6786911 354.96685974 383.69122925 353.72009277 383.70414734 C352.40091354 383.70271225 351.08173431 383.70127716 349.72257996 383.69979858 C348.31298464 383.70881912 346.90339717 383.71914706 345.49382019 383.73068237 C341.6739694 383.75824453 337.85426747 383.76753578 334.03433013 383.77353644 C330.0397539 383.78292218 326.04528879 383.80912573 322.05078125 383.83354187 C314.48966079 383.87720509 306.9285619 383.90575312 299.36735374 383.92886525 C290.75790599 383.95591789 282.14857002 383.99982935 273.53920209 384.04515398 C255.83191376 384.13799769 238.12459586 384.20967967 220.41716003 384.26742554 C222.35023501 385.55614218 224.30762874 386.80944997 226.29216003 388.01742554 C231.19925632 391.55053486 234.53087184 395.42493997 236.41716003 401.26742554 C237.2231026 409.11130844 237.51387892 416.85927021 232.41716003 423.26742554 C228.89862616 426.98606561 225.38322319 429.76255791 220.41716003 431.26742554 C220.41716003 431.59742554 220.41716003 431.92742554 220.41716003 432.26742554 C239.16736441 432.31420205 257.9175569 432.34944205 276.66780758 432.37104988 C285.37439871 432.38135064 294.08095354 432.39538797 302.78752136 432.41830444 C310.37854286 432.43827512 317.96953804 432.4511507 325.56058508 432.45560253 C329.57781676 432.45820368 333.5949732 432.46429243 337.61218071 432.47888565 C341.39847551 432.49252774 345.18466455 432.49663486 348.9709816 432.4936409 C350.35561893 432.49418811 351.74026005 432.49812593 353.12487602 432.50583649 C367.70738278 432.69218633 367.70738278 432.69218633 380.41716003 426.26742554 C386.32477238 420.31731239 388.63919014 415.60850668 388.66600037 407.17227173 C388.65880981 406.23647278 388.65161926 405.30067383 388.64421082 404.33651733 C388.64450287 403.340923 388.64479492 402.34532867 388.64509583 401.31956482 C388.64370465 398.03516873 388.62815326 394.75100066 388.61247253 391.46664429 C388.60874165 389.18692651 388.60589504 386.90720713 388.60389709 384.62748718 C388.59626657 378.63187216 388.57662297 372.63635427 388.55448914 366.64077759 C388.53401826 360.52089756 388.52489271 354.40100182 388.51481628 348.28109741 C388.49337662 336.27649748 388.45924759 324.27196959 388.41716003 312.26742554 C388.08716003 312.26742554 387.75716003 312.26742554 387.41716003 312.26742554 Z M173.41716003 448.26742554 C173.41716003 458.82742554 173.41716003 469.38742554 173.41716003 480.26742554 C199.81716003 480.26742554 226.21716003 480.26742554 253.41716003 480.26742554 C253.41716003 469.70742554 253.41716003 459.14742554 253.41716003 448.26742554 C227.01716003 448.26742554 200.61716003 448.26742554 173.41716003 448.26742554 Z " fill="#000000" transform="translate(34.58283996582031,7.732574462890625)"/>
<path d="M0 0 C1.4530957 -0.04350586 1.4530957 -0.04350586 2.93554688 -0.08789062 C10.90586754 -0.15794753 16.15303058 1.50408274 22.125 6.8125 C24.86281356 9.94142979 26.97649617 12.56412783 28.6875 16.375 C30.57068512 19.77921925 31.73164059 20.84760297 35.3125 22.3125 C38.96915996 22.64492363 41.60432515 22.57001813 45.0625 21.3125 C52.247264 19.10180338 59.40051242 19.511483 66.1171875 22.91796875 C73.67082317 27.71627468 79.76040479 33.96525289 83.625 42.0625 C85.12545571 49.15556335 84.78443814 55.51467012 82.3125 62.3125 C81.99573926 65.92357242 82.0296576 68.52054128 83.25 71.9375 C85.83377319 74.91275397 88.63189691 76.26331265 92.09765625 78.06640625 C97.91577139 81.33973735 102.21667254 87.02501763 104.3125 93.3125 C104.59447401 96.87003965 104.59009316 100.43252073 104.625 104 C104.65400391 104.96873047 104.68300781 105.93746094 104.71289062 106.93554688 C104.78294753 114.90586754 103.12091726 120.15303058 97.8125 126.125 C94.68357021 128.86281356 92.06087217 130.97649617 88.25 132.6875 C84.84578075 134.57068512 83.77739703 135.73164059 82.3125 139.3125 C81.98007637 142.96915996 82.05498187 145.60432515 83.3125 149.0625 C85.52319662 156.247264 85.113517 163.40051242 81.70703125 170.1171875 C76.90872532 177.67082317 70.65974711 183.76040479 62.5625 187.625 C55.24999822 189.17187538 48.99456967 188.86806673 42.15234375 185.9296875 C38.94495422 184.85374791 36.5002952 185.41029381 33.3125 186.3125 C29.11417537 189.11138309 27.42617886 191.63531771 25.5 196.25 C22.80661978 201.97168855 20.13190684 204.86810096 14.3125 207.3125 C9.80166419 208.81611194 5.35103195 208.57875703 0.625 208.625 C-0.34373047 208.65400391 -1.31246094 208.68300781 -2.31054688 208.71289062 C-10.28086754 208.78294753 -15.52803058 207.12091726 -21.5 201.8125 C-24.23781356 198.68357021 -26.35149617 196.06087217 -28.0625 192.25 C-29.94568512 188.84578075 -31.10664059 187.77739703 -34.6875 186.3125 C-38.34415996 185.98007637 -40.97932515 186.05498187 -44.4375 187.3125 C-51.622264 189.52319662 -58.77551242 189.113517 -65.4921875 185.70703125 C-73.04582317 180.90872532 -79.13540479 174.65974711 -83 166.5625 C-84.50045571 159.46943665 -84.15943814 153.11032988 -81.6875 146.3125 C-81.37073926 142.70142758 -81.4046576 140.10445872 -82.625 136.6875 C-85.20877319 133.71224603 -88.00689691 132.36168735 -91.47265625 130.55859375 C-97.29077139 127.28526265 -101.59167254 121.59998237 -103.6875 115.3125 C-103.96947401 111.75496035 -103.96509316 108.19247927 -104 104.625 C-104.02900391 103.65626953 -104.05800781 102.68753906 -104.08789062 101.68945312 C-104.15653841 93.87944715 -102.43092019 88.8041257 -97.625 82.6875 C-94.07463576 79.81699274 -90.31418433 77.91605189 -86.2109375 75.9375 C-83.27529129 74.04705291 -82.1279763 72.47178193 -80.6875 69.3125 C-80.88425133 65.70539223 -81.5228471 62.76771684 -82.75 59.375 C-85.21361936 51.32717675 -83.10622431 44.74705457 -79.6875 37.3125 C-77.6875 34.4375 -77.6875 34.4375 -75.6875 32.3125 C-75.089375 31.4875 -74.49125 30.6625 -73.875 29.8125 C-69.09652793 24.35138906 -63.45051369 20.64762222 -56.078125 20.12890625 C-50.77402064 20.0070552 -46.69783253 20.4905609 -41.6875 22.3125 C-38.07642758 22.62926074 -35.47945872 22.5953424 -32.0625 21.375 C-29.08724603 18.79122681 -27.73668735 15.99310309 -25.93359375 12.52734375 C-20.06032392 2.08802089 -10.91309171 0.10678172 0 0 Z M-31.5 80.5625 C-38.59428065 90.37900462 -39.84106528 100.52710626 -38.6875 112.3125 C-36.42992091 123.09277414 -29.94293852 131.42359065 -21.11328125 137.8046875 C-11.13734101 144.00551348 0.0845243 145.03558289 11.46484375 142.65234375 C22.64959105 139.02867387 31.11505052 131.12372995 36.6328125 120.85546875 C40.68393851 111.40756299 40.9126898 100.13689536 37.75 90.375 C33.17341606 79.70163815 24.92336185 71.45158394 14.25 66.875 C-3.16689389 61.23221951 -19.89359789 66.78759814 -31.5 80.5625 Z " fill="#EFBB5D" transform="translate(399.6875,119.6875)"/>
<path d="M0 0 C42.24 0 84.48 0 128 0 C128 26.4 128 52.8 128 80 C85.76 80 43.52 80 0 80 C0 53.6 0 27.2 0 0 Z " fill="#F0BC5E" transform="translate(40,104)"/>
<path d="M0 0 C52.8 0 105.6 0 160 0 C160 15.84 160 31.68 160 48 C107.2 48 54.4 48 0 48 C0 32.16 0 16.32 0 0 Z " fill="#F0BC5E" transform="translate(120,232)"/>
<path d="M0 0 C1.03833984 0.75023437 1.03833984 0.75023437 2.09765625 1.515625 C3.02771484 2.17304688 3.02771484 2.17304688 3.9765625 2.84375 C14.6545447 11.15680997 21.5773298 24.38815819 24.09765625 37.515625 C25.64966792 53.98328565 22.04503098 68.10526234 12.09765625 81.515625 C11.35515625 82.5675 10.61265625 83.619375 9.84765625 84.703125 C-0.58279344 95.37063036 -14.92346337 102.56695741 -29.98950195 102.89624023 C-45.65615977 102.85435564 -59.69422575 97.87998446 -71.390625 87.08984375 C-82.73545838 75.27597333 -88.43879919 60.15055105 -88.32421875 43.9284668 C-87.871531 30.54588508 -82.19849383 17.32034549 -73.078125 7.4921875 C-52.26192552 -11.4180404 -24.04714296 -15.89761037 0 0 Z M-63.71484375 22.765625 C-70.8091244 32.58212962 -72.05590903 42.73023126 -70.90234375 54.515625 C-68.64476466 65.29589914 -62.15778227 73.62671565 -53.328125 80.0078125 C-43.35218476 86.20863848 -32.13031945 87.23870789 -20.75 84.85546875 C-9.5652527 81.23179887 -1.09979323 73.32685495 4.41796875 63.05859375 C8.46909476 53.61068799 8.69784605 42.34002036 5.53515625 32.578125 C0.95857231 21.90476315 -7.2914819 13.65470894 -17.96484375 9.078125 C-35.38173764 3.43534451 -52.10844164 8.99072314 -63.71484375 22.765625 Z " fill="#020100" transform="translate(431.90234375,177.484375)"/>
<path d="M0 0 C42.24 0 84.48 0 128 0 C128 10.56 128 21.12 128 32 C85.76 32 43.52 32 0 32 C0 21.44 0 10.88 0 0 Z " fill="#F0BC5E" transform="translate(40,152)"/>
<path d="M0 0 C21.12 0 42.24 0 64 0 C64 26.4 64 52.8 64 80 C42.88 80 21.76 80 0 80 C0 53.6 0 27.2 0 0 Z M16 16 C16 31.84 16 47.68 16 64 C26.56 64 37.12 64 48 64 C48 48.16 48 32.32 48 16 C37.44 16 26.88 16 16 16 Z " fill="#000000" transform="translate(184,104)"/>
<path d="M0 0 C52.8 0 105.6 0 160 0 C160 5.28 160 10.56 160 16 C107.2 16 54.4 16 0 16 C0 10.72 0 5.44 0 0 Z " fill="#000000" transform="translate(120,264)"/>
<path d="M0 0 C52.8 0 105.6 0 160 0 C160 5.28 160 10.56 160 16 C107.2 16 54.4 16 0 16 C0 10.72 0 5.44 0 0 Z " fill="#000000" transform="translate(120,232)"/>
<path d="M0 0 C42.24 0 84.48 0 128 0 C128 5.28 128 10.56 128 16 C85.76 16 43.52 16 0 16 C0 10.72 0 5.44 0 0 Z " fill="#000000" transform="translate(40,136)"/>
<path d="M0 0 C5.82485779 3.51996782 10.54466582 8.98962934 12.5625 15.5 C13.36764105 23.33608208 13.68710392 31.11922577 8.5625 37.5 C3.75801361 42.54521222 -0.59927055 46.10562995 -7.70703125 46.8359375 C-16.22326573 46.92983204 -22.11345494 46.6177288 -28.40234375 40.62890625 C-34.7841668 33.72505269 -35.91792252 28.29832071 -35.7421875 18.9453125 C-35.04689797 11.08319245 -31.38995981 6.95041296 -25.53515625 1.9453125 C-18.47077988 -2.92213491 -7.84396301 -3.47595223 0 0 Z " fill="#F0BC5D" transform="translate(259.4375,393.5)"/>
<path d="M0 0 C5.82485779 3.51996782 10.54466582 8.98962934 12.5625 15.5 C13.36764105 23.33608208 13.68710392 31.11922577 8.5625 37.5 C3.75801361 42.54521222 -0.59927055 46.10562995 -7.70703125 46.8359375 C-16.22326573 46.92983204 -22.11345494 46.6177288 -28.40234375 40.62890625 C-34.7841668 33.72505269 -35.91792252 28.29832071 -35.7421875 18.9453125 C-35.04689797 11.08319245 -31.38995981 6.95041296 -25.53515625 1.9453125 C-18.47077988 -2.92213491 -7.84396301 -3.47595223 0 0 Z M-16.8125 17.125 C-18.92456506 20.21186432 -19.04945145 21.8282913 -18.4375 25.5 C-16.9375 28 -16.9375 28 -14.4375 29.5 C-10.7657913 30.11195145 -9.14936432 29.98706506 -6.0625 27.875 C-3.95043494 24.78813568 -3.82554855 23.1717087 -4.4375 19.5 C-5.9375 17 -5.9375 17 -8.4375 15.5 C-12.1092087 14.88804855 -13.72563568 15.01293494 -16.8125 17.125 Z " fill="#000000" transform="translate(411.4375,201.5)"/>
<path d="M0 0 C3.13738154 1.39080525 5.25475281 3.01022204 7.66699219 5.43994141 C8.71762848 6.49080429 8.71762848 6.49080429 9.78948975 7.56289673 C10.53442688 8.31815643 11.27936401 9.07341614 12.046875 9.8515625 C12.81807678 10.62559418 13.58927856 11.39962585 14.3838501 12.19711304 C16.84396856 14.66841923 19.29703848 17.14659183 21.75 19.625 C23.41750894 21.30254052 25.08547232 22.97962945 26.75390625 24.65625 C30.8412237 28.76560919 34.92277696 32.88062647 39 37 C37.60919475 40.13738154 35.98977796 42.25475281 33.56005859 44.66699219 C32.85948334 45.36741638 32.15890808 46.06784058 31.43710327 46.78948975 C30.68184357 47.53442688 29.92658386 48.27936401 29.1484375 49.046875 C28.37440582 49.81807678 27.60037415 50.58927856 26.80288696 51.3838501 C24.33158077 53.84396856 21.85340817 56.29703848 19.375 58.75 C17.69745948 60.41750894 16.02037055 62.08547232 14.34375 63.75390625 C10.23439081 67.8412237 6.11937353 71.92277696 2 76 C-1.63303084 74.30413874 -3.94549046 72.26199512 -6.75 69.375 C-7.54921875 68.55773437 -8.3484375 67.74046875 -9.171875 66.8984375 C-9.77515625 66.27195312 -10.3784375 65.64546875 -11 65 C-9.4152642 61.13671373 -6.94043113 58.71123077 -3.9921875 55.796875 C-3.50670441 55.3142218 -3.02122131 54.8315686 -2.52102661 54.33428955 C-0.97700134 52.80141438 0.57384824 51.27565996 2.125 49.75 C3.17624009 48.70879639 4.22702657 47.66713459 5.27734375 46.625 C7.84633004 44.07800536 10.42148161 41.53734823 13 39 C11.4152642 35.13671373 8.94043113 32.71123077 5.9921875 29.796875 C5.50670441 29.3142218 5.02122131 28.8315686 4.52102661 28.33428955 C2.97700134 26.80141438 1.42615176 25.27565996 -0.125 23.75 C-1.17624009 22.70879639 -2.22702657 21.66713459 -3.27734375 20.625 C-5.84633004 18.07800536 -8.42148161 15.53734823 -11 13 C-9.30413874 9.36696916 -7.26199512 7.05450954 -4.375 4.25 C-3.55773437 3.45078125 -2.74046875 2.6515625 -1.8984375 1.828125 C-0.95871094 0.92320312 -0.95871094 0.92320312 0 0 Z " fill="#000000" transform="translate(125,290)"/>
<path d="M0 0 C26.4 0 52.8 0 80 0 C80 5.28 80 10.56 80 16 C53.6 16 27.2 16 0 16 C0 10.72 0 5.44 0 0 Z " fill="#000000" transform="translate(88,104)"/>
<path d="M0 0 C21.12 0 42.24 0 64 0 C64 5.28 64 10.56 64 16 C42.88 16 21.76 16 0 16 C0 10.72 0 5.44 0 0 Z " fill="#000000" transform="translate(168,344)"/>
<path d="M0 0 C15.84 0 31.68 0 48 0 C48 5.28 48 10.56 48 16 C32.16 16 16.32 16 0 16 C0 10.72 0 5.44 0 0 Z " fill="#000000" transform="translate(40,168)"/>
<path d="M0 0 C10.56 0 21.12 0 32 0 C32 5.28 32 10.56 32 16 C21.44 16 10.88 16 0 16 C0 10.72 0 5.44 0 0 Z " fill="#000000" transform="translate(136,168)"/>
<path d="M0 0 C10.56 0 21.12 0 32 0 C32 5.28 32 10.56 32 16 C21.44 16 10.88 16 0 16 C0 10.72 0 5.44 0 0 Z " fill="#000000" transform="translate(40,104)"/>
<path d="M0 0 C5.28 0 10.56 0 16 0 C16 5.28 16 10.56 16 16 C10.72 16 5.44 16 0 16 C0 10.72 0 5.44 0 0 Z " fill="#000000" transform="translate(104,168)"/>
<path d="M0 0 C5.28 0 10.56 0 16 0 C16 5.28 16 10.56 16 16 C10.72 16 5.44 16 0 16 C0 10.72 0 5.44 0 0 Z " fill="#000000" transform="translate(104,40)"/>
<path d="M0 0 C5.28 0 10.56 0 16 0 C16 5.28 16 10.56 16 16 C10.72 16 5.44 16 0 16 C0 10.72 0 5.44 0 0 Z " fill="#000000" transform="translate(72,40)"/>
<path d="M0 0 C5.28 0 10.56 0 16 0 C16 5.28 16 10.56 16 16 C10.72 16 5.44 16 0 16 C0 10.72 0 5.44 0 0 Z " fill="#000000" transform="translate(40,40)"/>
</svg>
